<svg width="910" height="740" viewBox="0 0 910 740" fill="none" xmlns="http://www.w3.org/2000/svg">
<path id="s_path" fill-rule="evenodd" clip-rule="evenodd" d="M640.272 14.4004C639.045 18.3816 636.785 22.6844 634.415 26.3894L626.523 38L629.361 23.1567C631.574 19.695 633.531 15.902 634.538 12.6333C635.042 10.9967 635.264 9.63285 635.237 8.58383C635.211 7.54575 634.953 7.03941 634.728 6.78546C634.525 6.55543 634.029 6.16773 632.724 6.04006C631.378 5.90841 629.376 6.0822 626.523 6.84103C620.819 8.35815 612.398 12.0222 600.374 18.8791C540.221 53.1813 401.028 142.409 214.282 389.582C209.375 396.076 206.629 400.768 205.435 404C204.838 405.614 204.708 406.66 204.75 407.273C204.785 407.781 204.922 407.897 204.971 407.939L204.975 407.942C205.1 408.049 205.492 408.289 206.456 408.396C207.406 408.501 208.685 408.451 210.31 408.194C213.562 407.679 217.731 406.415 222.5 404.58C241.618 397.222 268.047 381.611 277.098 374.867C289.935 365.303 311.858 350.337 336.007 336.448C360.102 322.59 386.656 309.66 408.688 304.356C419.652 301.717 428.091 300.851 434.515 301.307C440.933 301.763 445.61 303.563 448.676 306.53C451.793 309.546 452.852 313.386 452.777 317.052C452.705 320.547 451.613 323.999 450.205 326.852C448.795 331.849 444.888 338.672 439.289 346.743C433.502 355.086 425.677 365.082 416.275 376.307C397.467 398.763 372.221 426.286 344.039 455.585C287.672 514.186 219.434 580.023 167.176 626.874C140.941 650.395 98.9634 686.802 87.9586 696.274C69.1914 712.427 39.8938 729.303 21.3124 736.232C16.6731 737.962 12.5014 739.149 9.23504 739.486C7.61773 739.653 5.98225 739.64 4.54653 739.218C3.03239 738.774 1.50769 737.784 0.806505 735.943C0.166326 734.263 0.463045 732.491 1.00678 730.973C1.56759 729.406 2.5411 727.686 3.84613 725.821C6.46363 722.081 10.7448 717.3 16.916 711.342C28.5167 700.141 41.9309 690.766 53.5031 683.408C58.9247 679.961 43.2354 689.862 47.5 687.307L48.3599 686.792C52.8527 684.101 51.374 684.941 53.5031 683.408L97 662L56.7224 688.471C54.339 690.188 57.6803 688.042 55.8542 689.061L55 689.573C50.7299 692.13 62.0727 685.069 56.7224 688.471C45.2909 695.74 32.2628 704.864 21.0836 715.658C15.0146 721.518 11.0531 725.987 8.76188 729.261C7.61254 730.903 6.96516 732.131 6.65562 732.995C6.57809 733.212 6.52893 733.385 6.4978 733.52C6.9163 733.592 7.60008 733.623 8.61901 733.518C11.1253 733.259 14.733 732.281 19.2162 730.61C37.1252 723.932 65.8088 707.422 84.0445 691.726C95.0401 682.262 136.981 645.887 163.171 622.407C215.313 575.66 283.444 509.926 339.715 451.425C367.852 422.173 392.992 394.761 411.676 372.455C421.02 361.299 428.717 351.457 434.359 343.324C440.072 335.087 443.453 328.911 444.49 325.004L444.572 324.697L444.715 324.414C445.906 322.069 446.727 319.397 446.778 316.929C446.828 314.516 446.153 312.438 444.504 310.841C442.803 309.195 439.68 307.689 434.09 307.292C428.506 306.895 420.728 307.629 410.092 310.19C388.924 315.286 362.978 327.857 338.998 341.649C315.072 355.41 293.346 370.243 280.683 379.679C271.234 386.719 244.329 402.608 224.655 410.18C219.726 412.076 215.106 413.509 211.248 414.12C209.32 414.425 207.464 414.544 205.796 414.359C204.142 414.176 202.433 413.666 201.069 412.496C198.039 409.898 198.374 405.798 199.806 401.921C201.31 397.85 204.485 392.595 209.495 385.965C396.741 138.131 536.555 48.3648 597.402 13.667C609.577 6.72389 618.528 2.7588 624.981 1.0426C628.206 0.184755 630.98 -0.15916 633.308 0.0685618C635.677 0.300266 637.753 1.14902 639.223 2.81066C640.671 4.44838 641.186 6.48892 641.236 8.43105C641.285 10.3622 640.885 12.4119 640.272 14.4004Z" fill="white"/>
<path fill-rule="evenodd" clip-rule="evenodd" d="M738.905 248.554C790.859 188.063 829.748 148.758 848.387 132.04L852.504 136.402C826.342 162.383 784.22 207.862 743.394 252.536C732.343 265.405 720.696 279.238 708.522 294.023C711.286 293.612 713.519 293.475 715.286 293.556C716.561 293.615 717.717 293.792 718.698 294.135C719.074 294.266 719.482 294.443 719.881 294.683C735.068 289.825 747.129 286.085 768.26 280.765L776.5 281.5L770 286.5C751.102 291.401 740.826 292.043 715.286 302C718.698 316.041 686.88 323.638 682 325.6C656.988 356.653 629.483 391.861 609.012 421.773C606.62 425.268 605.685 430.432 604.925 434.161C604.534 436.082 604.381 437.669 604.454 438.853C604.49 439.438 604.577 439.849 604.671 440.121C604.736 440.308 604.865 440.389 604.891 440.422C604.991 440.455 605.183 440.502 605.741 440.396C606.833 440.19 608.559 439.499 611.078 437.914C616.082 434.765 623.642 428.957 634 418.5C644.358 408.043 788.312 282.559 867.293 208.773C881.474 195.299 894.444 183.215 905.347 173.076L909.448 177.456C898.464 187.808 885.551 199.927 871.395 213.152C845.42 237.831 815.408 267.149 786.615 297.699C742.049 344.986 700.683 394.937 681.599 435.062C679.22 440.063 678.279 443.504 678.202 445.731C678.131 447.785 678.761 448.327 679.257 448.596C680.121 449.064 681.868 449.319 684.852 448.821C687.723 448.342 691.248 447.252 695.244 445.669C711.288 439.316 732.935 425.853 745.271 417.764C774.762 398.426 789 387 793.845 384.098L810.5 371.5L796.5 389.479C793.173 391.12 772 407.412 748.561 422.782C736.251 430.853 714.136 444.641 697.453 451.247C693.268 452.905 689.301 454.161 685.841 454.739C682.494 455.298 679.071 455.321 676.397 453.87C673.355 452.221 672.079 449.158 672.206 445.523C672.326 442.063 673.685 437.733 676.181 432.485C693.766 395.511 729.547 350.842 769.041 307.785C713.459 358.561 662.958 399.692 639.5 421.672C629.139 432.121 619.844 439.487 614.274 442.992C611.491 444.743 609.021 445.883 606.854 446.292C604.615 446.715 602.326 446.399 600.624 444.724C599.07 443.195 598.579 441.069 598.465 439.222C598.347 437.303 598.602 435.143 599.046 432.963C599.938 428.584 600.083 426.973 602 422.5L603.77 418.771L605.741 415.5C626.394 387.541 644.561 364.461 663.561 340.321C659.855 344.395 656.359 348.233 653.106 351.796C626.769 380.641 607.244 394.274 595.417 398.522C594.657 398.796 593.916 399.035 593.197 399.238C589.771 403.285 586.41 407.234 583.135 411.081C579.891 414.892 576.733 418.604 573.68 422.211C568.052 428.862 562.812 433.579 558.281 436.56C553.91 439.437 549.663 441.05 546.216 440.483C544.333 440.174 542.656 439.193 541.613 437.473C540.626 435.846 540.422 433.915 540.636 432.03C541.057 428.305 543.217 423.676 546.961 418.512C554.312 408.374 562.997 396.454 569.647 387.34C560.327 392.226 552.786 394.401 547.25 394.853C546.959 394.876 546.67 394.896 546.384 394.91C542.406 404.614 537.78 415.742 534.653 421.672C531.081 428.448 526.91 433.756 522.843 437.586C518.828 441.367 514.741 443.871 511.286 444.753C509.579 445.188 507.671 445.316 505.963 444.604C504.043 443.803 502.871 442.146 502.565 440.136C502.286 438.313 502.719 436.304 503.53 434.284C504.36 432.216 505.696 429.871 507.556 427.259C514.645 417.311 519.685 409.377 522.827 403.555C524.401 400.638 525.459 398.323 526.066 396.594C526.085 396.537 526.105 396.482 526.123 396.427C525.714 396.681 525.249 396.989 524.725 397.362C521.064 399.967 515.654 404.878 508.565 412.339C497.933 423.531 490.626 431.935 485.519 437.809C485.196 438.181 484.882 438.542 484.576 438.893C482.023 441.826 480.001 444.134 478.411 445.757C477.614 446.57 476.862 447.278 476.155 447.831C475.643 448.231 475.021 448.657 474.313 448.951C471.214 451.218 467.805 453.359 465.192 454.082C464.478 454.279 463.608 454.436 462.707 454.342C461.749 454.242 460.61 453.833 459.78 452.78C458.995 451.786 458.823 450.636 458.841 449.734C458.859 448.826 459.073 447.882 459.376 446.954C460.55 443.36 463.902 437.593 470.075 428.911C476.322 420.126 485.656 408.088 499.079 391.861C512.459 375.685 520.951 364.472 525.921 356.906C528.412 353.112 529.952 350.334 530.786 348.366C531.007 347.845 531.167 347.407 531.281 347.043C530.52 347.231 529.513 347.577 528.262 348.108C524.691 349.625 520.197 352.17 515.895 354.61C503.79 361.475 488.559 370.704 472.191 385.509C469.892 388.165 467.59 390.818 465.312 393.443C461.17 398.217 457.109 402.898 453.294 407.326C442.391 419.983 433.643 430.424 430.437 435.399C422.634 447.502 417.895 454.605 415.38 458.188C414.751 459.085 414.247 459.782 413.86 460.291C413.668 460.544 413.49 460.77 413.331 460.959C413.21 461.103 412.977 461.376 412.697 461.61C412.615 461.678 412.476 461.788 412.294 461.899C412.15 461.986 411.765 462.208 411.218 462.302C410.594 462.408 409.478 462.368 408.571 461.46C407.811 460.698 407.713 459.812 407.694 459.512C407.656 458.917 407.81 458.439 407.84 458.345L407.843 458.336C407.898 458.161 407.96 458.009 408.005 457.905C408.173 457.516 408.443 457.015 408.728 456.511C411.062 452.376 418.886 440.239 425.478 432.016C439.627 410.092 454.147 393.782 467.893 381.307C473.167 375.216 478.416 369.124 483.323 363.333C493.661 351.132 502.27 340.506 506.366 334.141C505.407 334.723 504.309 335.426 503.064 336.263C429.14 385.943 385.545 450.352 373.09 476.08L365 490.5V481L367.69 473.466C380.569 446.861 424.84 381.603 499.717 331.283C502.418 329.468 504.637 328.129 506.396 327.267C507.273 326.837 508.111 326.488 508.887 326.267C509.599 326.063 510.577 325.871 511.589 326.079C512.846 326.338 513.963 327.191 514.424 328.566C514.785 329.643 514.614 330.684 514.45 331.341C514.105 332.722 513.278 334.334 512.295 335.971C508.813 341.772 501.216 351.341 492.085 362.245C499.681 357.063 506.72 352.916 512.935 349.391L513.063 349.318C517.231 346.954 522.001 344.249 525.917 342.586C527.857 341.761 529.87 341.067 531.624 340.907C532.508 340.826 533.588 340.853 534.631 341.282C535.793 341.76 536.721 342.666 537.19 343.926C537.611 345.059 537.573 346.242 537.394 347.273C537.209 348.331 536.831 349.481 536.311 350.708C535.271 353.161 533.506 356.286 530.936 360.2C525.782 368.047 517.121 379.462 503.702 395.685C490.324 411.858 481.092 423.77 474.965 432.388C469.718 439.768 466.885 444.547 465.62 447.429C467.112 446.641 469.013 445.411 471.105 443.862L471.569 443.519L472.042 443.394C472.083 443.371 472.218 443.293 472.46 443.103C472.865 442.787 473.405 442.292 474.124 441.558C475.564 440.088 477.461 437.929 480.05 434.954C480.355 434.603 480.67 434.241 480.994 433.869C486.112 427.983 493.491 419.496 504.215 408.207C511.377 400.668 517.105 395.42 521.246 392.474C523.252 391.047 525.192 389.932 526.907 389.543C527.78 389.344 528.977 389.244 530.154 389.787C531.471 390.393 532.182 391.525 532.471 392.624C532.734 393.623 532.678 394.656 532.535 395.554C532.386 396.489 532.104 397.506 531.728 398.579C530.975 400.725 529.756 403.348 528.107 406.405C524.801 412.532 519.604 420.69 512.443 430.741C510.76 433.102 509.698 435.026 509.098 436.52C508.548 437.889 508.462 438.71 508.483 439.103C508.528 439.106 508.582 439.109 508.644 439.109C508.914 439.11 509.298 439.067 509.802 438.939C511.905 438.402 515.118 436.62 518.729 433.219C522.286 429.868 526.064 425.099 529.346 418.874C532.216 413.431 536.382 403.472 540.158 394.275C539.278 393.995 538.487 393.624 537.804 393.154C536.626 392.344 535.619 391.117 535.355 389.479C535.122 388.027 535.545 386.694 536.233 385.61C538.258 380.379 541.702 377.156 544.805 375.772C546.246 375.129 548.165 374.647 549.89 375.266C550.882 375.621 551.911 376.404 552.358 377.734C552.771 378.963 552.503 380.125 552.148 380.955C551.278 382.985 550.189 385.621 548.969 388.598C555.624 387.512 565.842 383.679 579.222 374.524L583.337 378.772C578.338 385.603 563.415 406.039 551.819 422.034C548.313 426.87 546.848 430.491 546.598 432.704C546.475 433.788 546.674 434.247 546.743 434.362C546.757 434.384 546.792 434.497 547.189 434.563C548.304 434.746 550.902 434.234 554.983 431.548C558.906 428.967 563.728 424.684 569.1 418.335C572.173 414.704 575.345 410.976 578.598 407.155C580.682 404.706 582.799 402.218 584.944 399.692C583.62 399.31 582.411 398.612 581.498 397.481C580.006 395.63 579.862 393.312 580.323 391.227C580.745 389.318 581.72 387.31 583.095 385.298C583.17 385.098 583.244 384.956 583.275 384.896L583.28 384.886C583.465 384.529 583.719 384.155 583.94 383.846C584.418 383.177 585.129 382.274 585.988 381.233C587.72 379.133 590.192 376.3 592.947 373.305C598.369 367.411 605.226 360.515 609.754 357.502C612.804 355.473 615.392 354.181 617.492 353.902C618.59 353.756 619.989 353.832 621.196 354.723C622.452 355.65 622.881 356.995 622.973 358.057C623.139 359.971 622.347 362.114 621.482 363.869C620.545 365.769 619.225 367.796 617.726 369.656C612.467 376.179 607.239 382.514 602.11 388.65C613.022 382.26 628.671 369.66 648.675 347.75C653.024 342.987 657.811 337.728 662.958 332.066C662.296 332.481 661.644 332.893 661.004 333.302C657.895 335.287 655.004 336.637 652.59 337.35C651.388 337.704 650.213 337.928 649.135 337.952C648.298 337.97 647.226 337.875 646.235 337.37C641.354 340.167 636.45 341.781 632.396 342.267C630.146 342.537 627.965 342.483 626.138 341.94C624.332 341.403 622.335 340.188 621.684 337.816C621.069 335.57 621.98 333.366 623.251 331.565C624.571 329.693 626.654 327.704 629.483 325.6C635.16 321.377 644.381 316.298 658.233 310.505C673.747 304.017 685.618 299.827 694.586 297.234C708.571 281.834 723.644 265.253 738.905 248.554ZM686.574 306.059C679.418 308.492 670.819 311.745 660.548 316.041C646.9 321.748 638.183 326.607 633.064 330.415C630.494 332.326 628.963 333.876 628.153 335.024C627.796 335.53 627.632 335.877 627.557 336.088C627.631 336.118 627.727 336.153 627.848 336.189C628.609 336.415 629.893 336.525 631.681 336.31C635.136 335.896 639.766 334.357 644.456 331.445C644.739 330.815 645.112 330.233 645.501 329.713C646.927 327.809 649.429 325.612 653.013 323.169C659.412 318.808 669.92 313.227 685.912 306.788C686.132 306.546 686.353 306.303 686.574 306.059ZM627.321 335.957C627.321 335.957 627.333 335.964 627.349 335.981C627.327 335.966 627.321 335.957 627.321 335.957ZM589.884 393.863C597.394 384.981 605.186 375.651 613.055 365.89C614.318 364.323 615.386 362.665 616.101 361.215C616.219 360.976 616.324 360.747 616.419 360.53C615.537 360.959 614.433 361.596 613.077 362.498C609.244 365.048 602.85 371.402 597.363 377.367C594.806 380.146 592.52 382.76 590.884 384.727L588.352 388.251C587.055 390.056 586.406 391.505 586.182 392.522C586.072 393.017 586.079 393.339 586.107 393.517C586.12 393.603 586.138 393.653 586.148 393.677C586.153 393.689 586.157 393.697 586.161 393.703C586.164 393.708 586.167 393.712 586.169 393.714C586.173 393.719 586.186 393.735 586.22 393.759C586.255 393.784 586.32 393.824 586.43 393.868C586.655 393.958 587.046 394.055 587.663 394.073C588.259 394.09 588.997 394.03 589.884 393.863ZM542.447 388.685C543.26 386.697 544.034 384.807 544.749 383.08C543.657 384.2 542.549 385.814 541.73 388.037L541.591 388.415C541.808 388.508 542.092 388.602 542.447 388.685ZM508.641 329.831C508.643 329.808 508.647 329.794 508.647 329.794C508.647 329.794 508.647 329.804 508.641 329.831ZM528.312 395.38C528.312 395.38 528.306 395.381 528.291 395.382C528.305 395.38 528.312 395.38 528.312 395.38ZM604.84 440.396C604.841 440.393 604.857 440.399 604.883 440.42C604.852 440.409 604.839 440.399 604.84 440.396Z" fill="white"/>
</svg>
