<?xml version="1.0" encoding="UTF-8" standalone="no"?>
<svg width="81px" height="81px" viewBox="0 0 81 81" version="1.1" xmlns="http://www.w3.org/2000/svg" xmlns:xlink="http://www.w3.org/1999/xlink">
    <!-- Generator: Sketch 40.1 (33804) - http://www.bohemiancoding.com/sketch -->
    <title>Oval 2</title>
    <desc>Created with Sketch.</desc>
    <defs>
        <filter x="-50%" y="-50%" width="200%" height="200%" filterUnits="objectBoundingBox" id="filter-1">
            <feGaussianBlur stdDeviation="0.949563419" in="SourceGraphic"></feGaussianBlur>
        </filter>
        <filter x="-50%" y="-50%" width="200%" height="200%" filterUnits="objectBoundingBox" id="filter-2">
            <feGaussianBlur stdDeviation="0.949563419" in="SourceGraphic"></feGaussianBlur>
        </filter>
        <ellipse id="path-3" cx="186.534477" cy="89.7148042" rx="19.0024727" ry="18.8670618"></ellipse>
        <filter x="-50%" y="-50%" width="200%" height="200%" filterUnits="objectBoundingBox" id="filter-4">
            <feMorphology radius="10.5" operator="dilate" in="SourceAlpha" result="shadowSpreadOuter1"></feMorphology>
            <feOffset dx="0" dy="0" in="shadowSpreadOuter1" result="shadowOffsetOuter1"></feOffset>
            <feMorphology radius="10.5" operator="erode" in="SourceAlpha" result="shadowInner"></feMorphology>
            <feOffset dx="0" dy="0" in="shadowInner" result="shadowInner"></feOffset>
            <feComposite in="shadowOffsetOuter1" in2="shadowInner" operator="out" result="shadowOffsetOuter1"></feComposite>
            <feGaussianBlur stdDeviation="5.5" in="shadowOffsetOuter1" result="shadowBlurOuter1"></feGaussianBlur>
            <feColorMatrix values="0 0 0 0 1   0 0 0 0 1   0 0 0 0 1  0 0 0 0.333021966 0" type="matrix" in="shadowBlurOuter1"></feColorMatrix>
        </filter>
    </defs>
    <g id="Page-1" stroke="none" stroke-width="1" fill="none" fill-rule="evenodd">
        <g id="Landing" transform="translate(-666.000000, -354.000000)">
            <g id="EASY-CONCERTS-+-Bitmap-+-EC" transform="translate(520.000000, 305.000000)">
                <g id="EC">
                    <path d="M129.671551,87.2995369 C129.671551,64.9051179 147.569345,38.0318151 188.324562,38.0318151 C209.025625,38.0318151 223.257606,48.4146821 223.257606,48.4146821 L240.508492,15.8409817 C240.508492,15.8409817 220.669973,0.36847399 182.071116,0.36847399 C131.612275,0.36847399 85.6817918,39.4569145 85.6817918,87.7067082 C85.6817918,135.752916 131.827911,174.434185 182.071116,174.434185 C220.669973,174.434185 240.508492,158.961678 240.508492,158.961678 L223.257606,126.387977 C223.257606,126.387977 209.025625,136.770844 188.324562,136.770844 C147.569345,136.770844 129.671551,109.897542 129.671551,87.2995369 Z" id="C" stroke="#FFFFFF" stroke-width="5" fill="#FFFFFF"></path>
                    <path d="M174.890859,108.091902 C172.217371,107.031226 168.994402,104.027114 168.994402,104.027114 C168.994402,104.027114 169.879172,106.044077 170.414502,106.665097 C170.988759,107.331274 172.099185,108.475452 172.099185,108.475452 C172.099185,108.475452 169.837295,107.653369 168.693854,106.901497 C167.550413,106.149625 166.324364,105.22065 166.324364,105.22065 L167.562106,109.317087 L162.882372,106.280797 L166.155087,111.156215 L159.169963,105.376895 C159.169963,105.376895 159.69715,106.818453 160.193415,107.641843 C160.55592,108.243302 161.746271,109.651443 161.746271,109.651443 C161.746271,109.651443 160.496191,109.392695 159.816826,109.157117 C158.965716,108.861985 157.154844,108.059313 157.154844,108.059313 C157.154844,108.059313 158.153473,109.314127 158.878397,110.045461 C159.426906,110.59882 161.405249,111.808798 161.405249,111.808798 C161.405249,111.808798 161.047247,112.575383 158.783714,111.733033 C156.52018,110.890684 155.15738,109.797278 155.15738,109.797278 C155.15738,109.797278 155.6987,110.947003 157.135794,112.395379 C158.572888,113.843755 161.372438,115.418625 161.372438,115.418625 C161.372438,115.418625 157.927231,114.389095 156.466516,113.641434 C154.60269,112.687443 151.398815,110.313669 151.398815,110.313669 C151.398815,110.313669 152.210217,111.652955 152.691921,112.569986 C152.929984,113.023193 153.558116,114.424382 153.558116,114.424382 L149.98692,112.224228 C149.98692,112.224228 152.093518,114.702328 153.082034,116.125151 C153.458751,116.667378 154.082618,118.11938 154.082618,118.11938 L149.071144,116.825058 C149.071144,116.825058 151.497846,120.971528 159.816825,125.395657 C168.135805,129.819786 176.539558,130.943696 176.539558,130.943696 C176.539558,130.943696 174.548409,130.214237 173.493269,129.245366 C172.714026,128.529835 171.593543,127.713474 171.593543,127.713474 C171.593543,127.713474 173.614051,128.45863 174.045257,128.464982 C174.893243,128.477473 176.539557,128.826836 176.539557,128.826836 C176.539557,128.826836 174.012367,127.483271 173.250591,127.033802 C172.488814,126.584332 171.073341,125.600709 171.073341,125.600709 C171.073341,125.600709 173.577393,125.579105 174.388813,125.588907 C175.459746,125.601845 177.590758,125.395657 177.590758,125.395657 C177.590758,125.395657 174.719906,125.029058 173.317133,124.691978 C172.224092,124.429325 170.103317,123.596458 170.103317,123.596458 C170.103317,123.596458 171.540525,123.445314 172.240191,123.302872 C172.938782,123.160649 174.298088,122.742465 174.298088,122.742465 C174.298088,122.742465 173.394403,122.381873 172.913031,122.074239 C172.49597,121.807705 171.60279,121.019962 171.60279,121.019962 C171.60279,121.019962 173.665518,121.270536 174.587731,121.235966 C175.754549,121.192226 177.869883,120.78503 177.869883,120.78503 C177.869883,120.78503 175.490663,120.23585 174.561027,119.851642 C173.53835,119.42898 172.012945,118.364419 172.012945,118.364419 C172.012945,118.364419 173.842971,118.936923 174.730503,119.057677 C175.871191,119.212874 178.097603,119.19227 178.097603,119.19227 C178.097603,119.19227 175.956983,118.317104 174.913631,117.764012 C173.936988,117.246282 172.037619,115.979805 172.037619,115.979805 C172.037619,115.979805 173.901454,116.538146 174.792287,116.658182 C175.754095,116.787781 177.595542,116.728711 177.595542,116.728711 C177.595542,116.728711 175.799707,116.100462 175.104849,115.752131 C174.325631,115.361511 173.173311,114.511856 173.173311,114.511856 C173.173311,114.511856 174.749837,114.82885 175.459212,114.872503 C176.11128,114.912629 177.25764,114.763194 177.25764,114.763194 C177.25764,114.763194 176.153993,114.355808 175.543661,114.040979 C174.820558,113.667978 173.257336,112.699705 173.257336,112.699705 C173.257336,112.699705 175.136336,113.494816 176.054419,113.709334 C176.892973,113.90527 178.527247,113.931067 178.527247,113.931067 C178.527247,113.931067 177.143308,113.427188 176.878102,113.288297 C176.247848,112.958227 175.840867,112.524182 175.840867,112.524182 C175.840867,112.524182 177.006524,112.850308 177.579912,112.90823 C178.535604,113.004771 180.428108,112.987572 180.428108,112.987572 C180.428108,112.987572 178.671034,112.430366 177.940372,112.056302 C177.09839,111.625246 175.710178,110.572211 175.710178,110.572211 C175.710178,110.572211 177.408738,111.086251 178.227261,111.197247 C179.216974,111.331457 181.134885,111.307829 181.134885,111.307829 C181.134885,111.307829 179.985361,110.80476 179.5876,110.564747 C179.148145,110.299576 178.623237,109.792278 178.623237,109.792278 C178.623237,109.792278 180.022344,109.926298 180.71554,109.884522 C181.371259,109.845005 178.025989,109.33573 174.890859,108.091902 Z" id="Path-3" fill="#FFFFFF" filter="url(#filter-1)"></path>
                    <path d="M190.386324,69.3758275 C193.080401,70.0028756 196.712834,71.7309026 196.712834,71.7309026 C196.712834,71.7309026 195.729187,70.3291333 193.436083,68.9659372 C191.14298,67.6027411 195.246508,68.4214953 194.952499,68.2261377 C194.152672,67.6946833 192.645684,66.8258135 192.645684,66.8258135 C192.645684,66.8258135 195.300302,66.9320603 196.734801,67.3566218 C198.1693,67.7811832 199.741216,68.3718208 199.741216,68.3718208 L197.285278,64.2923187 L203.144971,65.9848317 L198.289899,61.7663232 L207.379424,65.6680666 C207.379424,65.6680666 206.416802,64.2648863 205.657456,63.5324651 C205.102778,62.9974555 203.437355,61.8657743 203.437355,61.8657743 C203.437355,61.8657743 204.850671,61.7087985 205.644875,61.7282074 C206.639854,61.7525229 208.804905,61.9969475 208.804905,61.9969475 C208.804905,61.9969475 207.387505,60.966514 206.407991,60.4165168 C205.666848,60.0003652 203.209932,59.3660299 203.209932,59.3660299 C203.209932,59.3660299 203.383383,58.3939859 206.045342,58.5220001 C208.707302,58.6500143 210.471278,59.3735949 210.471278,59.3735949 C210.471278,59.3735949 209.573774,58.2972413 207.63237,57.2084949 C205.690966,56.1197486 202.251983,55.3735876 202.251983,55.3735876 C202.251983,55.3735876 206.234124,55.2899069 208.0081,55.597563 C210.271636,55.9901223 214.36452,57.4742339 214.36452,57.4742339 C214.36452,57.4742339 213.124893,56.2843999 212.355416,55.4435611 C211.975133,55.02801 210.915239,53.7050642 210.915239,53.7050642 L215.354721,54.8677415 C215.354721,54.8677415 212.411207,52.8803313 210.958441,51.6610433 C210.404803,51.1963818 209.335507,49.8158929 209.335507,49.8158929 L214.156884,49.9165211 C214.156884,49.9165211 208.438639,45.6323214 198.289898,43.6970107 C188.141157,41.7616999 181.712334,43.0760211 181.712334,43.0760211 C181.712334,43.0760211 184.0351,43.7194045 185.434499,44.4145104 C186.467984,44.9278605 187.895578,45.4316628 187.895578,45.4316628 C187.895578,45.4316628 185.521279,45.3248414 185.056575,45.4704107 C184.142713,45.7566796 182.279057,45.9539275 182.279057,45.9539275 C182.279057,45.9539275 185.361986,46.5413808 186.303517,46.7675047 C187.245048,46.9936286 189.035371,47.5775066 189.035371,47.5775066 C189.035371,47.5775066 186.352884,48.4873434 185.47902,48.7636389 C184.325672,49.1283007 182.094477,50.1096993 182.094477,50.1096993 C182.094477,50.1096993 185.27758,49.4981784 186.876384,49.3735575 C188.122172,49.276453 190.628252,49.444523 190.628252,49.444523 C190.628252,49.444523 189.126804,50.1197303 188.41481,50.5243752 C187.70391,50.9283985 186.359571,51.8705274 186.359571,51.8705274 C186.359571,51.8705274 187.429007,51.9484278 188.030462,52.1173545 C188.551564,52.2637129 189.727244,52.8163826 189.727244,52.8163826 C189.727244,52.8163826 187.443691,53.2699127 186.463085,53.634344 C185.222386,54.0954362 183.063327,55.2929533 183.063327,55.2929533 C183.063327,55.2929533 185.768832,55.0567335 186.872626,55.1514957 C188.086893,55.255742 190.017511,55.8899787 190.017511,55.8899787 C190.017511,55.8899787 187.895222,55.9061548 186.909116,56.087027 C185.641737,56.3194907 183.257057,57.1299865 183.257057,57.1299865 C183.257057,57.1299865 185.796082,57.3376806 187.068431,57.5784473 C188.25943,57.8038202 190.647102,58.5284052 190.647102,58.5284052 C190.647102,58.5284052 188.492411,58.5721627 187.502959,58.7549946 C186.434674,58.9523932 184.473889,59.6690966 184.473889,59.6690966 C184.473889,59.6690966 186.574805,59.7264919 187.416664,59.8647604 C188.36073,60.0198157 189.831664,60.5490682 189.831664,60.5490682 C189.831664,60.5490682 188.05184,60.7573192 187.278222,60.9601791 C186.567101,61.1466505 185.377446,61.7170622 185.377446,61.7170622 C185.377446,61.7170622 186.674442,61.7758131 187.416333,61.9070449 C188.295304,62.0625244 190.240032,62.5771961 190.240032,62.5771961 C190.240032,62.5771961 188.003916,62.365216 186.959212,62.4534968 C186.005005,62.5341303 184.243299,63.0839391 184.243299,63.0839391 C184.243299,63.0839391 185.867773,63.1499235 186.19072,63.2092511 C186.958194,63.3502415 187.514561,63.6848929 187.514561,63.6848929 C187.514561,63.6848929 186.173347,63.7376952 185.541802,63.8767029 C184.489179,64.1083933 182.462058,64.7969872 182.462058,64.7969872 C182.462058,64.7969872 184.501814,64.7897524 185.389193,64.9437314 C186.411769,65.1211699 188.191921,65.7912398 188.191921,65.7912398 C188.191921,65.7912398 186.226864,65.8253718 185.317533,65.992587 C184.21802,66.1947746 182.165389,66.899448 182.165389,66.899448 C182.165389,66.899448 183.537965,67.0474834 184.031049,67.1714233 C184.575819,67.308355 185.278951,67.6820628 185.278951,67.6820628 C185.278951,67.6820628 183.090175,68.6222982 182.357431,68.913642 C181.998304,69.0564334 186.941548,68.5740535 190.386324,69.3758275 Z" id="Path-3" fill="#FFFFFF" filter="url(#filter-2)"></path>
                    <g id="Oval-2">
                        <use fill="black" fill-opacity="1" filter="url(#filter-4)" xlink:href="#path-3"></use>
                        <use stroke="#FFFFFF" stroke-width="17" xlink:href="#path-3"></use>
                    </g>
                </g>
            </g>
        </g>
    </g>
</svg>
